<svg viewBox="0 0 569 130" xmlns="http://www.w3.org/2000/svg"><g fill-rule="nonzero" fill="none"><path d="M128.992 24.215c0-7.837-5.278-17.837-17.043-22.475C96.71-4.267 90.775 13.892 64.496 13.892c-26.28 0-32.214-18.159-47.453-12.152C5.28 6.378 0 16.378 0 24.215c0 10.251 12.847 17.446 12.847 40.803C12.847 88.375 0 95.569 0 105.82c0 7.838 5.279 17.838 17.043 22.476 15.239 6.006 21.174-12.153 47.453-12.153 26.28 0 32.215 18.16 47.453 12.153 11.765-4.638 17.043-14.638 17.043-22.476 0-10.25-12.846-17.445-12.846-40.802s12.846-30.552 12.846-40.803" fill="#FE0100"/><path d="M218.375 48l-2.275 5.95h-19.95a4.2 4.2 0 0 0-4.2 4.2v5.25h17.5l-2.275 5.95H191.95V83H186V57.1a9.1 9.1 0 0 1 9.1-9.1h23.275zm23.1 35l13.3-35h5.95l13.3 35h-6.65l-9.625-28-9.625 28h-6.65zm177.1 0l13.3-35h5.95l13.3 35h-6.65l-9.625-28-9.625 28h-6.65zm-113.4 0V48H312l16.8 25.375V48h5.95v35h-6.825l-16.8-25.375V83h-5.95zm58.45-35h32.55l-1.488 5.95H382.7V83h-5.95V53.95h-11.637L363.625 48zm125.038 0h21.35l-.945 5.95h-20.23a4.287 4.287 0 1 0 0 8.575h11.724c5.63 0 10.195 4.564 10.195 10.194v.044c-.025 5.66-4.62 10.237-10.282 10.237h-21.227l.892-5.95h20.248a4.288 4.288 0 0 0 0-8.575h-11.725c-5.654 0-10.238-4.583-10.238-10.238 0-5.653 4.584-10.237 10.238-10.237zm55.037 0l8.75 13.475L561.2 48h7.7l-13.475 19.6V83h-5.95V67.6L536 48h7.7z" fill="#000"/></g></svg>
